<svg xmlns="http://www.w3.org/2000/svg" viewBox="0 0 22.92 21.3"><defs><style>.cls-1{fill:#e2e2e2;}</style></defs><g id="Layer_2" data-name="Layer 2"><g id="Layer_1-2" data-name="Layer 1"><path class="cls-1" d="M20.2,14.07c-1-.58-2.23-1.23-3.38-.76-.88.36-1.44,1.74-2,2.44a.84.84,0,0,1-1.09.24A15.39,15.39,0,0,1,6.08,9.44.94.94,0,0,1,6.2,8.16,5.17,5.17,0,0,0,7.59,5.9,4.94,4.94,0,0,0,7,3.23c-.47-1-1-2.4-2-3A2.73,2.73,0,0,0,2.06.7,6,6,0,0,0,0,5.42,6.83,6.83,0,0,0,.19,6.91a12.29,12.29,0,0,0,1.43,3.31,26.34,26.34,0,0,0,1.5,2.28,23.07,23.07,0,0,0,6.5,6,19.79,19.79,0,0,0,4.05,1.93,9,9,0,0,0,4.72.75A5.73,5.73,0,0,0,22.67,18a2.74,2.74,0,0,0,.2-1.62C22.62,15.28,21.11,14.62,20.2,14.07Z"/></g></g></svg>