<svg xmlns="http://www.w3.org/2000/svg" viewBox="0 0 16 16"><defs><style>.cls-1{fill:red;}.cls-2{fill:#fff;}</style></defs><g id="Layer_2" data-name="Layer 2"><g id="Layer_1-2" data-name="Layer 1"><circle cx="8" cy="8" r="8"/><path class="cls-1" d="M5.9,5.74a1.48,1.48,0,0,0-.33.17L5.48,6a.09.09,0,0,0,0,.11s0,0,0,0-.1,0-.12-.06a.65.65,0,0,1,0-.28.21.21,0,0,1,.18-.2l.32-.06a2.14,2.14,0,0,0,.64-.23,1.78,1.78,0,0,0,.88-1.16.13.13,0,0,0,0-.06A.06.06,0,0,0,7.23,4l0,0-.54.31a7.27,7.27,0,0,0-.86.59c-.43.32-.84.66-1.23,1A6.41,6.41,0,0,1,4,6.4l-.08.07a0,0,0,0,0,0,.06H4c.14,0,.29,0,.43,0h.27a0,0,0,0,1,0,0,.59.59,0,0,1-.2.12l-.43.14-.32.12a1.18,1.18,0,0,0-.58.5c0,.08-.09.16-.14.24A.75.75,0,0,1,3,7.8a.21.21,0,0,1-.33,0l-.07-.06a.86.86,0,0,1,0-1.19,2,2,0,0,1,.46-.35l.21-.12a6.62,6.62,0,0,0,1-.66c.37-.29.71-.59,1-.91a10.07,10.07,0,0,1,.87-.72,4.07,4.07,0,0,1,1.23-.62A3.55,3.55,0,0,1,8,3.1a8.77,8.77,0,0,1,.89,0l.46,0a8.42,8.42,0,0,0,1,.08l.68,0c.29,0,.58,0,.87-.06l.36-.07C12.66,3,13,3,13.37,2.86a1.17,1.17,0,0,1,.26,0s0,0,0,0a0,0,0,0,1,0,0s0,0-.07.06a1.32,1.32,0,0,1-.29.15,8,8,0,0,1-1,.35,1.89,1.89,0,0,1-.34.09c-.39.09-.78.2-1.17.31a8,8,0,0,0-.92.36,2.2,2.2,0,0,0-.65.44,2.85,2.85,0,0,0-.42.49l-.21.33A1.36,1.36,0,0,0,8.43,6a4.67,4.67,0,0,0,0,.52c0,.34,0,.67,0,1a5.56,5.56,0,0,0,.17,1.29,2.54,2.54,0,0,0,.37.8A1.26,1.26,0,0,0,9.4,10l.09,0a2.51,2.51,0,0,0,.61.1h.15l.59-.05L11,10a.5.5,0,0,0,.2-.08A1.09,1.09,0,0,0,11.74,9a1.77,1.77,0,0,0,0-.23V8.37A.78.78,0,0,1,12,7.85a1.2,1.2,0,0,1,.21-.17,1.77,1.77,0,0,1,.48-.23l.27-.08a.55.55,0,0,1,.18,0c.05,0,.07,0,.06.08a1.7,1.7,0,0,1,0,.22,3.64,3.64,0,0,0-.11.93,4.2,4.2,0,0,0,.06.62,1.72,1.72,0,0,1,0,.39,1.18,1.18,0,0,1-.24.65,1.12,1.12,0,0,1-.2.18l-.12.09s0,.06,0,.09l.08.05.36.19a3.3,3.3,0,0,1,.39.26.39.39,0,0,1,.08.1.06.06,0,0,1-.06,0l-.31-.12a4.24,4.24,0,0,0-.93-.24,3.63,3.63,0,0,0-.57,0,3.28,3.28,0,0,0-.63,0,3.85,3.85,0,0,0-.69.16,2.37,2.37,0,0,0-.61.32l-.7.5L8.71,12a.57.57,0,0,0-.19.22l-.16.3a2,2,0,0,1-.33.43.85.85,0,0,1-.73.23,1.07,1.07,0,0,1-.9-.84,1.84,1.84,0,0,1,0-.41s0,0,0,0a.41.41,0,0,1,.09.1,1.44,1.44,0,0,0,.27.28l.06,0a.49.49,0,0,0,.44.08,1.3,1.3,0,0,0,.25-.1,1.5,1.5,0,0,0,.64-.63.94.94,0,0,0,0-.88,3.3,3.3,0,0,0-.31-.51,4.7,4.7,0,0,0-.6-.66,3.87,3.87,0,0,0-.56-.44,2.91,2.91,0,0,0-.91-.39,2.12,2.12,0,0,0-.56,0H4.7a.22.22,0,0,0-.21.17.39.39,0,0,0,0,.15,2.16,2.16,0,0,0,.21.82s.05.1.08.14l.07.15s0,.06,0,.09-.08,0-.11,0a1.11,1.11,0,0,1-.19-.09,2.59,2.59,0,0,1-.42-.32,5.08,5.08,0,0,1-.63-.68,2.9,2.9,0,0,1-.29-.52.83.83,0,0,1-.05-.35s0,0,0,0,0,0,0,0l0,0,.16.2.17.21a1.21,1.21,0,0,0,.2.19l.06,0A.16.16,0,0,0,4.1,8.8a.55.55,0,0,0,0-.22.29.29,0,0,1,0-.09.22.22,0,0,1,.13-.27.67.67,0,0,1,.19-.05h.19l1.06,0H5.7A.15.15,0,0,0,5.85,8c0-.06,0-.12,0-.19A1.7,1.7,0,0,1,6,7.47l0-.06s.05,0,.05,0a.08.08,0,0,1,0,0,1,1,0,0,0,.17.43,2.46,2.46,0,0,0,.55.61l0,0a0,0,0,0,0,.06,0,.86.86,0,0,0,0-.16c0-.11,0-.22,0-.34a2.19,2.19,0,0,1,0-.36c0-.27,0-.53,0-.79a4.39,4.39,0,0,1,.07-.72s0,0,0,0a0,0,0,0,0-.06,0l-.18.11a1.81,1.81,0,0,1-.41.22.54.54,0,0,1-.21,0,.23.23,0,0,1-.18-.06.23.23,0,0,0,.24-.14.43.43,0,0,1,.15-.15l.3-.24.06,0a0,0,0,0,0,0-.08.08.08,0,0,0-.08,0,3.23,3.23,0,0,1-.44,0A.35.35,0,0,0,5.9,5.74Z"/><path class="cls-2" d="M5.9,5.74a.35.35,0,0,1,.14,0,3.23,3.23,0,0,0,.44,0,.08.08,0,0,1,.08,0,0,0,0,0,1,0,.08l-.06,0-.3.24a.43.43,0,0,0-.15.15.23.23,0,0,1-.24.14l-.14,0a.26.26,0,0,1-.1-.07,0,0,0,0,1,0-.06l0,0A.31.31,0,0,0,5.8,6a1.19,1.19,0,0,1,.09-.15S5.93,5.78,5.9,5.74Z"/></g></g></svg>