<svg xmlns="http://www.w3.org/2000/svg" viewBox="0 0 5.45 11.73"><defs><style>.cls-1{fill:#e2e2e2;fill-rule:evenodd;}</style></defs><g id="Layer_2" data-name="Layer 2"><g id="Layer_1-2" data-name="Layer 1"><path class="cls-1" d="M1.2,5.91v5.67a.15.15,0,0,0,.15.15h2.1a.15.15,0,0,0,.15-.15V5.82H5.13a.16.16,0,0,0,.15-.14L5.42,4a.14.14,0,0,0-.15-.16H3.6V2.55A.53.53,0,0,1,4.12,2H5.3a.15.15,0,0,0,.15-.15V.15A.15.15,0,0,0,5.3,0h-2A2.12,2.12,0,0,0,1.2,2.11V3.79h-1A.15.15,0,0,0,0,3.93V5.67a.15.15,0,0,0,.15.15H1.2Z"/></g></g></svg>