<svg xmlns="http://www.w3.org/2000/svg" viewBox="0 0 12.23 12.23"><defs><style>.cls-1{fill:#e2e2e2;}</style></defs><g id="Layer_2" data-name="Layer 2"><g id="Layer_1-2" data-name="Layer 1"><path class="cls-1" d="M9.33,2.25a.72.72,0,1,0,.72.72A.71.71,0,0,0,9.33,2.25Zm-3.19.92a3,3,0,1,0,3,3A3,3,0,0,0,6.14,3.17Zm0,5A1.94,1.94,0,1,1,8.07,6.2,1.94,1.94,0,0,1,6.14,8.13Zm6.09-4.45A3.68,3.68,0,0,0,8.55,0H3.68A3.68,3.68,0,0,0,0,3.68V8.55a3.68,3.68,0,0,0,3.68,3.68H8.55a3.68,3.68,0,0,0,3.68-3.68ZM11.08,8.55a2.53,2.53,0,0,1-2.53,2.53H3.68A2.53,2.53,0,0,1,1.15,8.55V3.68A2.54,2.54,0,0,1,3.68,1.15H8.55a2.53,2.53,0,0,1,2.53,2.53Z"/></g></g></svg>