<svg xmlns="http://www.w3.org/2000/svg" xmlns:xlink="http://www.w3.org/1999/xlink" viewBox="0 0 12.23 12.23"><defs><style>.cls-1{fill:url(#Degradado_sin_nombre_2);}</style><linearGradient id="Degradado_sin_nombre_2" x1="0.37" y1="11.01" x2="18.02" y2="-4.02" gradientUnits="userSpaceOnUse"><stop offset="0" stop-color="#ffe185"/><stop offset="0.21" stop-color="#ffbb36"/><stop offset="0.38" stop-color="#ff5176"/><stop offset="0.52" stop-color="#f63395"/><stop offset="0.74" stop-color="#a436d2"/><stop offset="1" stop-color="#5f4eed"/></linearGradient></defs><g id="Layer_2" data-name="Layer 2"><g id="Layer_1-2" data-name="Layer 1"><path class="cls-1" d="M9.33,2.25a.72.72,0,1,0,.72.72A.71.71,0,0,0,9.33,2.25Zm-3.19.92a3,3,0,1,0,3,3A3,3,0,0,0,6.14,3.17Zm0,5A1.94,1.94,0,1,1,8.07,6.2,1.94,1.94,0,0,1,6.14,8.13Zm6.09-4.45A3.68,3.68,0,0,0,8.55,0H3.68A3.68,3.68,0,0,0,0,3.68V8.55a3.68,3.68,0,0,0,3.68,3.68H8.55a3.68,3.68,0,0,0,3.68-3.68ZM11.08,8.55a2.53,2.53,0,0,1-2.53,2.53H3.68A2.53,2.53,0,0,1,1.15,8.55V3.68A2.54,2.54,0,0,1,3.68,1.15H8.55a2.53,2.53,0,0,1,2.53,2.53Z"/></g></g></svg>