<svg xmlns="http://www.w3.org/2000/svg" viewBox="0 0 737.14 166.21"><defs><style>.cls-1{fill:red;}.cls-2{fill:#f7f8f8;}.cls-3{fill:#fff;}.cls-4{fill:#b28f39;}</style></defs><g id="Layer_2" data-name="Layer 2"><g id="Layer_1-2" data-name="Layer 1"><path class="cls-1" d="M139.6,42.19a19.9,19.9,0,0,0-4.75,2.37,15.45,15.45,0,0,0-1.27,1,1.3,1.3,0,0,0-.5,1.68c.13.27,0,.48-.31.54-1,.21-1.42,0-1.66-1a9.37,9.37,0,0,1-.39-3.94A3.09,3.09,0,0,1,133.44,40c1.49-.34,3-.63,4.49-.93a30.43,30.43,0,0,0,9.3-3.28,26,26,0,0,0,12.7-16.73,3.68,3.68,0,0,0,.14-.86.89.89,0,0,0-1.32-.84l-.52.28-7.85,4.46a121.7,121.7,0,0,0-12.46,8.51c-6.17,4.54-12,9.44-17.75,14.55a78.26,78.26,0,0,1-8.23,6.52,10.4,10.4,0,0,0-1.26,1,.49.49,0,0,0,.31.8c.49,0,1,0,1.47,0,2.07-.12,4.12-.46,6.2-.41,1.33,0,2.65.13,4,.2.15.36-.07.52-.23.69a7.07,7.07,0,0,1-2.9,1.71c-2,.73-4.11,1.39-6.16,2.11-1.53.54-3.06,1.09-4.57,1.69a17.11,17.11,0,0,0-8.37,7.22c-.7,1.14-1.33,2.31-2,3.46a19.77,19.77,0,0,1-1.1,1.75c-1.31,1.81-2.9,2-4.7.67a6.43,6.43,0,0,1-1-.89,12.33,12.33,0,0,1,.22-17.13,36.79,36.79,0,0,1,6.59-5c1-.64,2-1.25,3.06-1.81a98.07,98.07,0,0,0,14.09-9.52c5.24-4.13,10.25-8.52,15.14-13.05a127.3,127.3,0,0,1,12.5-10.44A58.89,58.89,0,0,1,161,5.81a48.6,48.6,0,0,1,9.29-1.72,110.69,110.69,0,0,1,12.88-.15c2.21.05,4.42.36,6.63.61a142.56,142.56,0,0,0,14.61,1.12c3.25,0,6.51.32,9.77.19A122.44,122.44,0,0,0,226.69,5c1.75-.26,3.49-.63,5.24-1,5.18-1,10.32-2.19,15.43-3.52a24.29,24.29,0,0,1,3.8-.52c.14,0,.33,0,.36.15a.68.68,0,0,1-.1.41,2.68,2.68,0,0,1-1,.89,27.83,27.83,0,0,1-4.18,2.22,148.93,148.93,0,0,1-14.07,5c-1.6.5-3.22.94-4.85,1.3-5.69,1.27-11.29,2.83-16.86,4.51a108.49,108.49,0,0,0-13.4,5.13,32.47,32.47,0,0,0-9.27,6.29A41.7,41.7,0,0,0,181.76,33c-1,1.62-2.09,3.23-3.12,4.86a18.87,18.87,0,0,0-2.5,7.37,48.53,48.53,0,0,0-.56,7.52c0,4.83-.07,9.67,0,14.5a73.69,73.69,0,0,0,2.39,18.58,36.05,36.05,0,0,0,5.4,11.62,18.15,18.15,0,0,0,6.75,5.63,6.35,6.35,0,0,0,1.24.51,32.51,32.51,0,0,0,8.87,1.49c.74,0,1.48-.07,2.21-.14,2.8-.27,5.59-.63,8.41-.75a26.16,26.16,0,0,0,2.79-.31,7.24,7.24,0,0,0,2.87-1.12c4.84-3.06,6.9-7.67,7.35-13.16.09-1.08,0-2.17,0-3.26q0-3.11,0-6.21a10.79,10.79,0,0,1,3-7.49,15.17,15.17,0,0,1,3-2.47,26.12,26.12,0,0,1,7-3.36c1.28-.37,2.57-.73,3.83-1.15a7,7,0,0,1,2.64-.25.85.85,0,0,1,.88,1.09,28.55,28.55,0,0,1-.63,3.19A47.92,47.92,0,0,0,242,83.17a52.86,52.86,0,0,0,.91,9,22.36,22.36,0,0,1,.46,5.59A16.3,16.3,0,0,1,240,107a15,15,0,0,1-2.95,2.68c-.56.41-1.13.81-1.65,1.26a.75.75,0,0,0,.07,1.26,10.08,10.08,0,0,0,1.24.8c1.7.91,3.39,1.83,5.1,2.72a47.57,47.57,0,0,1,5.64,3.8,2.87,2.87,0,0,1,1.12,1.33c-.31.26-.58.08-.83,0-1.47-.57-2.93-1.18-4.41-1.74A64.75,64.75,0,0,0,230,115.58a57.21,57.21,0,0,0-8.28-.42,56,56,0,0,0-9.15.67,64.13,64.13,0,0,0-9.92,2.35,33.65,33.65,0,0,0-8.71,4.66c-3.37,2.42-6.83,4.7-10.19,7.13-1.16.84-2.34,1.64-3.54,2.43a7.83,7.83,0,0,0-2.82,3.16c-.71,1.46-1.5,2.89-2.3,4.3a28.76,28.76,0,0,1-4.77,6.21,12.1,12.1,0,0,1-10.47,3.34c-7.2-.84-11.77-6.69-13-12.15a27,27,0,0,1-.67-5.87c0-.5.39-.7.79-.43a5.64,5.64,0,0,1,1.32,1.39,20.68,20.68,0,0,0,3.88,4.05l.83.62a7.12,7.12,0,0,0,6.33,1.07,16.23,16.23,0,0,0,3.58-1.4,22.48,22.48,0,0,0,9.32-9.06,13.59,13.59,0,0,0,.51-12.78,40,40,0,0,0-4.4-7.36A67.33,67.33,0,0,0,159.58,98a59.21,59.21,0,0,0-8.08-6.47A40.39,40.39,0,0,0,138.35,86a30.35,30.35,0,0,0-7.95-.6c-2.22.11-4.44.13-6.66.12a12.16,12.16,0,0,0-1.48,0,3.33,3.33,0,0,0-3,2.43,5.41,5.41,0,0,0-.25,2.19A31.65,31.65,0,0,0,122,102c.35.71.73,1.4,1.09,2.11s.73,1.4,1.05,2.12c.2.43.74.92.41,1.33-.44.58-1.08.1-1.62-.06a11.21,11.21,0,0,1-2.64-1.31,39.78,39.78,0,0,1-6-4.52,70,70,0,0,1-9.08-9.93A32.25,32.25,0,0,1,101,84.27a10.45,10.45,0,0,1-.74-5.07,1.89,1.89,0,0,1,.13-.57.39.39,0,0,1,.5-.19,1.66,1.66,0,0,1,.59.43c.8.93,1.59,1.88,2.37,2.84s1.59,2,2.41,3a17.11,17.11,0,0,0,2.89,2.75c.28.2.56.4.86.58a2.34,2.34,0,0,0,3.64-1.77,8.68,8.68,0,0,0-.15-3.09c-.1-.43-.26-.85-.36-1.28a3.3,3.3,0,0,1,2-4,6.91,6.91,0,0,1,2.72-.64c.89,0,1.78,0,2.67,0l15.4-.25c.25,0,.5,0,.74,0a2.29,2.29,0,0,0,2.23-1.83c.2-.87.36-1.74.51-2.61a28.16,28.16,0,0,1,1.49-5.41,2.38,2.38,0,0,1,.5-.89.43.43,0,0,1,.72.12,3.55,3.55,0,0,1,.22.7,15.83,15.83,0,0,0,2.47,6.29,34.83,34.83,0,0,0,7.86,8.78c.12.09.24.19.36.27a.53.53,0,0,0,.87-.4,10.38,10.38,0,0,0-.08-2.36c-.26-1.6-.6-3.19-.83-4.8-.25-1.77-.35-3.54-.43-5.31-.16-3.79-.26-7.59-.16-11.39a78.88,78.88,0,0,1,1.07-10.29c0-.2.09-.39.1-.58a.57.57,0,0,0-.88-.57c-.84.52-1.67,1.06-2.5,1.6a33.08,33.08,0,0,1-6,3.17,8.21,8.21,0,0,1-3,.69,3.86,3.86,0,0,1-2.62-.83A3.69,3.69,0,0,0,142,49.22,7.8,7.8,0,0,1,144.13,47l4.33-3.35a9.55,9.55,0,0,0,.91-.75.72.72,0,0,0-.25-1.21,2,2,0,0,0-1.16-.13,45,45,0,0,1-6.36.23A4.07,4.07,0,0,0,139.6,42.19Z"/><path class="cls-1" d="M302.51,76.66q0-14.65,0-29.3c0-1.14.07-2.27.16-3.4.09-1.29.52-1.7,1.84-1.86,1-.12,2.06-.23,3.1-.31s2.36-.16,3.54-.23c4.69-.24,9.37-.53,14.06-.36,1.33,0,2.66.19,4,.32,1.77.17,3.54.36,5.3.57.44,0,.87.15,1.31.24A27.74,27.74,0,0,1,342.85,45a15.73,15.73,0,0,1,5.48,4.87A12,12,0,0,1,349.94,53a22,22,0,0,1,1.35,9.15,23.93,23.93,0,0,1-2.45,8.93A19.63,19.63,0,0,1,342,78.33a22.52,22.52,0,0,1-4.18,2.2A31.91,31.91,0,0,0,334.77,82a1,1,0,0,0-.54,1.58c.21.45.46.87.71,1.3a114.09,114.09,0,0,0,9.9,14.72,23.75,23.75,0,0,0,5,5,19.78,19.78,0,0,0,3.49,1.92,7.29,7.29,0,0,0,1.72.46,10.32,10.32,0,0,1,1.43.36,1.75,1.75,0,0,1,1.28,1.79,5.71,5.71,0,0,1-.09,1.17,2.19,2.19,0,0,1-1.51,1.68,11.61,11.61,0,0,1-3.19.55,58.71,58.71,0,0,1-9.47,0,15.33,15.33,0,0,1-10.71-5.61,76.19,76.19,0,0,1-9.48-14.26,44,44,0,0,0-3.42-5.71c-.24-.33-.41-.91-1-.71s-.54.67-.57,1.12c-.06,1-.08,2-.12,3-.2,5.52-.09,11-.12,16.57,0,1,0,2,0,3a6.13,6.13,0,0,1-.05.74,1.76,1.76,0,0,1-1.63,1.65,5.94,5.94,0,0,1-1,.06l-9.78,0a11.63,11.63,0,0,1-1.18,0,1.76,1.76,0,0,1-1.78-1.81,23.32,23.32,0,0,1-.14-2.51Q302.5,92.28,302.51,76.66ZM318.34,62v9.61a7.32,7.32,0,0,0,.08,1.33,1.64,1.64,0,0,0,1.39,1.36,4.4,4.4,0,0,0,.73,0,27,27,0,0,0,5-.39,13.31,13.31,0,0,0,4.73-1.63,9.45,9.45,0,0,0,4.82-6.4,22.31,22.31,0,0,0,.52-6.31,12.39,12.39,0,0,0-1.37-4.8,8.89,8.89,0,0,0-5-4.4A19.13,19.13,0,0,0,324,49.22a13,13,0,0,0-3.83.16,2,2,0,0,0-1.72,1.95,14.88,14.88,0,0,0-.07,1.77Z"/><path class="cls-1" d="M253.54,77.44q0-10.74,0-21.46c0-3.51,0-7,.07-10.51a17.69,17.69,0,0,1,.16-2.06A1.34,1.34,0,0,1,255.19,42c.94-.08,1.87-.15,2.81-.15,3.26,0,6.52-.07,9.78,0,8.19.19,16.39,0,24.59.1.74,0,1.48,0,2.21.09,1.15.1,1.58.59,1.52,1.75-.06,1-.17,2-.28,2.94-.27,2.25-.56,4.5-.82,6.75s-.77,2.18-2.42,2.22c-4.64.11-9.28.21-13.91.33-2.52.06-5,.14-7.55.22-1.27,0-1.74.45-2,1.73a8,8,0,0,0-.15,1.46c0,3.11,0,6.22,0,9.33a8.8,8.8,0,0,0,.21,1.91,1.32,1.32,0,0,0,1.41,1.24c1.23.08,2.46.1,3.7.12l13.17.22a8.66,8.66,0,0,1,1.76.23,1.36,1.36,0,0,1,1.17,1.17,6.58,6.58,0,0,1,.14,1.32c-.09,1.52-.16,3-.35,4.57A2.5,2.5,0,0,1,287.4,82c-.89,0-1.78,0-2.66,0l-12.59.29c-.44,0-.88.07-1.32.1a1.62,1.62,0,0,0-1.63,1.44,11.24,11.24,0,0,0-.25,1.9c0,3.21,0,6.41,0,9.62a8.6,8.6,0,0,0,.26,1.75,1.45,1.45,0,0,0,1.45,1.23c.84,0,1.68.12,2.52.13l11.55.18c3,.06,6,.14,9,.22a6.49,6.49,0,0,1,1.32.12,1.58,1.58,0,0,1,1.4,1.65,8.77,8.77,0,0,1,0,.89,84.23,84.23,0,0,1-.92,8.82,1.81,1.81,0,0,1-1.84,1.77,15.05,15.05,0,0,1-1.78.06H256.87a11.83,11.83,0,0,1-1.33,0,1.72,1.72,0,0,1-1.79-1.91c-.08-2.61-.19-5.23-.2-7.84Q253.52,89.94,253.54,77.44Z"/><path class="cls-1" d="M30.51,42H56.88a12.21,12.21,0,0,1,1.48.06,1.49,1.49,0,0,1,1.52,1.5,6.84,6.84,0,0,1,0,1.63q-.54,5.15-1.13,10.29c-.14,1.24-.66,1.7-2,1.71-2.91,0-5.83,0-8.74,0-2.52,0-5,.14-7.55.21a5.87,5.87,0,0,0-.59.05,1.28,1.28,0,0,0-1.07.9A4.63,4.63,0,0,0,38.69,60c0,3.21,0,6.42,0,9.62q0,18.51,0,37c0,1,0,2.07-.06,3.1-.13,1.94-.63,2.45-2.56,2.47-3.46.06-6.91,0-10.37.06a5.7,5.7,0,0,1-1.74-.32,1.37,1.37,0,0,1-1-1.3c-.06-.93-.15-1.87-.15-2.8q0-22.28,0-44.55c0-1.29-.05-2.57-.08-3.85a4.31,4.31,0,0,0-.09-.88,1.31,1.31,0,0,0-1.23-1.09c-.35,0-.69,0-1,0-4.34,0-8.69,0-13,0-1.82,0-3.64-.11-5.47-.18A3.16,3.16,0,0,1,.85,57a1.07,1.07,0,0,1-.81-1,5.65,5.65,0,0,1,0-.58A63.22,63.22,0,0,1,1,44.17C1.41,42.08,1.9,42,3.55,42c2.56,0,5.13,0,7.7,0H30.51Z"/><path class="cls-2" d="M441.32,111.82c-.37,0-.71,0-1.06,0h-9.62l-.89,0c-.37,0-.52-.23-.52-.57s0-.59,0-.89V74.73a7.09,7.09,0,0,1,0-1,3.12,3.12,0,0,1,1.41-2.33,6.51,6.51,0,0,1,3.74-1.15c2,.1,4.05,0,6.07,0,.72,0,.84.12.93.86.05.48.06,1,.07,1.47q0,6,.08,12a6.59,6.59,0,0,0,.09,1.17.78.78,0,0,0,.82.7,6,6,0,0,0,.74,0c4.34,0,8.69,0,13,0,1.14,0,1.66.06,1.58-1.64a19.5,19.5,0,0,1,0-3,3.92,3.92,0,0,0,0-.59c-.08-.69-.36-1-1-1-.4,0-.79,0-1.19,0l-11,0c-1.15,0-1.64.13-1.61-1.6,0-2,0-4,.07-5.92,0-.25,0-.49,0-.74.14-2,0-1.76,1.84-1.76,6.66,0,13.33,0,20,0a8.12,8.12,0,0,1,3.54.88,3.31,3.31,0,0,1,1.93,2.63,11.6,11.6,0,0,1,.1,1.77v34.92c0,.15,0,.29,0,.44,0,1,0,1-1,1H458.82a5.82,5.82,0,0,1-.59,0,.45.45,0,0,1-.47-.46c0-.39,0-.79,0-1.18q0-5.92.08-11.83a9.8,9.8,0,0,0-.05-1.33,1.07,1.07,0,0,0-1-1,6.47,6.47,0,0,0-.88,0h-12.3a5.86,5.86,0,0,0-.59,0c-1,.06-1.32.39-1.4,1.35,0,.35,0,.69,0,1,0,3.85,0,7.7,0,11.54A4.62,4.62,0,0,1,441.32,111.82Z"/><path class="cls-2" d="M671.5,111.23l-3.42-5.07-6.28-9.32a6.41,6.41,0,0,0-.45-.58.22.22,0,0,0-.36.07,5,5,0,0,0-.09,1c0,4.15,0,8.29,0,12.44,0,.35,0,.69,0,1,0,.92,0,1-.88,1h-8.74a3.05,3.05,0,0,1-.52-.11,4.23,4.23,0,0,1-.1-1.55q0-13,0-26.06V71.79c0-.4,0-.79,0-1.19s.13-.49.41-.5c1.09,0,2.17,0,3.26,0a1,1,0,0,1,.74.44c.28.34.54.71.79,1.07L670.55,93c.27.4.57.79.86,1.18a2.73,2.73,0,0,0,1-1.13q6.72-9.74,13.43-19.49l1.59-2.32A2.45,2.45,0,0,1,690,70.06a12.14,12.14,0,0,0,1.48,0c.74,0,.78,0,.8.7,0,.3,0,.59,0,.89V110c0,2,.2,1.76-1.71,1.76H682.7a.5.5,0,0,1-.52-.57c0-.4,0-.79,0-1.19V97.74c0-.44,0-.88-.07-1.32a.32.32,0,0,0-.2-.17.29.29,0,0,0-.26,0,4.94,4.94,0,0,0-.43.59L672.36,110C672.12,110.38,671.85,110.73,671.5,111.23Z"/><path class="cls-2" d="M633.5,111.68a3.79,3.79,0,0,1-.11-1.49c0-4.24,0-8.49,0-12.73,0-.34,0-.69,0-1a.28.28,0,0,0-.45-.12c-.22.27-.41.55-.61.84l-8.66,12.9a3.58,3.58,0,0,1-.81,1,2.69,2.69,0,0,1-.85-1q-4.35-6.44-8.68-12.88l-.4-.62c-.12-.17-.26-.35-.47-.31s-.24.26-.24.46v13.47c0,.4,0,.79,0,1.19a.35.35,0,0,1-.37.36l-.6,0h-8.14c-.25,0-.5,0-.74,0a.36.36,0,0,1-.35-.39c0-.35,0-.69,0-1q0-19.38,0-38.77a2.69,2.69,0,0,1,.14-1.36,19.84,19.84,0,0,1,3.36,0,1.33,1.33,0,0,1,1,.57c.27.35.51.72.76,1.09L621.83,93c.19.29.39.57.6.85s.44.35.68,0c.78-1.08,1.55-2.16,2.3-3.26l13-18.9c.19-.28.4-.56.61-.83a1.9,1.9,0,0,1,1.54-.76l2.66,0c.25,0,.34.18.35.39s0,.69,0,1v38.78c0,1.62.13,1.5-1.53,1.51H634.8A3,3,0,0,1,633.5,111.68Z"/><path class="cls-1" d="M65.23,76.85V46.07c0-.73,0-1.48,0-2.21.09-1.29.53-1.73,1.83-1.86.78-.08,1.57-.13,2.36-.14,2,0,4,0,6.07,0,1.28,0,2.56.06,3.84.12s1.56.37,1.71,1.6a21.89,21.89,0,0,1,.15,2.8L81.3,88.1v17.75c0,1.13,0,2.27,0,3.4a8.83,8.83,0,0,1,0,.89c-.16,1.66-.54,2-2.25,2-3.75,0-7.5,0-11.25.06a5.76,5.76,0,0,1-.59,0,1.73,1.73,0,0,1-1.75-1.51,3.65,3.65,0,0,1-.09-.88c0-.78,0-1.57,0-2.36Z"/><path class="cls-2" d="M508.06,111.87c-5.54,0-11.07,0-16.6,0a4.08,4.08,0,0,1-2.81-1.08,3.88,3.88,0,0,1-1.29-2.58,9.4,9.4,0,0,1,0-1.19V75.51a9,9,0,0,1,.18-2.06,3.51,3.51,0,0,1,1.83-2.38,6,6,0,0,1,3.23-.84c2.07.08,4.15,0,6.22,0,.88,0,1,.14,1.1,1,0,.44,0,.88,0,1.33q0,13.77,0,27.53a5.51,5.51,0,0,0,.1,1.62.84.84,0,0,0,.84.7,8.62,8.62,0,0,0,.88,0h12.75c1.6,0,1.72-.15,1.7-1.82,0-.93,0-1.87,0-2.81a8.63,8.63,0,0,0,0-.88.93.93,0,0,0-.72-.83,4.25,4.25,0,0,0-1.62-.11c-2.27.14-4.54.06-6.81.07-1.84,0-1.85,0-1.85-1.77V88.26a6.62,6.62,0,0,1,.07-1.18.69.69,0,0,1,.71-.62l2.22,0h17.78c.7,0,1.39,0,2.08,0s.78.26.83.84,0,.88,0,1.33q0,6.59,0,13.17c0,1.63,0,3.26,0,4.89a7.46,7.46,0,0,1-.32,2.48,4.27,4.27,0,0,1-1.18,1.84,3,3,0,0,1-2.14.87c-1.13,0-2.27,0-3.4,0Z"/><path class="cls-2" d="M545.57,90.93q0-7.7,0-15.39a13.66,13.66,0,0,1,.13-1.92,3,3,0,0,1,1.87-2.48,9.15,9.15,0,0,1,3.84-.91c9.77,0,19.55,0,29.33,0h1.33a.44.44,0,0,1,.49.44c0,.19,0,.39,0,.59,0,2.51,0,5,0,7.54,0,1-.11,1.07-1.12,1.11-.3,0-.59,0-.89,0H564c-1.38,0-2.76,0-4.15,0a5.94,5.94,0,0,0-1,.06,1,1,0,0,0-.93,1c0,.83-.06,1.67-.06,2.51,0,5.53,0,11.05,0,16.57,0,2,.25,2.33,2.27,2.34,2.37,0,4.74.07,7.11,0,4.14-.14,8.29,0,12.43-.08.25,0,.5,0,.74,0,2.74.18,2.17-.28,2.21,2.2,0,2,0,4,0,5.92,0,.3,0,.6,0,.89s-.14.57-.52.57H549.77a3.9,3.9,0,0,1-4-3.19,11,11,0,0,1-.23-2.5q0-7.62,0-15.24Z"/><path class="cls-2" d="M696.45,111.72a3.58,3.58,0,0,1,.49-1.51q4.08-9.49,8.19-19c2.79-6.47,5.62-12.92,8.34-19.42a2.84,2.84,0,0,1,2.81-1.92,3.84,3.84,0,0,1,3.56,1.71,13.06,13.06,0,0,1,1.29,2.49c1.74,4.13,3.46,8.27,5.23,12.39,3.43,8,6.9,15.92,10.34,23.87a9.2,9.2,0,0,1,.42,1.1.29.29,0,0,1-.27.41,5.83,5.83,0,0,1-.59,0c-2.92,0-5.83,0-8.74,0a1.85,1.85,0,0,1-2-1.33c-.27-.74-.59-1.46-.88-2.19a2,2,0,0,0-2.05-1.36c-3.85-.07-7.7-.06-11.55,0a2,2,0,0,0-2,1.27c-.33.77-.66,1.54-.95,2.32a1.76,1.76,0,0,1-1.9,1.29c-3-.06-6,0-9,0C696.92,111.86,696.67,111.93,696.45,111.72Zm20.36-22.36c-1.3,2.92-2.34,5.61-3.43,8.28a1.71,1.71,0,0,0-.27,1.16,4.63,4.63,0,0,0,.55.06l6.64,0a.25.25,0,0,0,.14,0,1.44,1.44,0,0,0,.12-.29C719.38,95.63,718.2,92.64,716.81,89.36Z"/><path class="cls-2" d="M375.3,91.21c0-5.52,0-11,0-16.57a3.81,3.81,0,0,1,2.61-3.86,7,7,0,0,1,2.73-.54c1.87,0,3.75,0,5.62,0H387a.52.52,0,0,1,.58.53,8.62,8.62,0,0,1,0,.88l.09,28.55c0,.49,0,1,0,1.47a.8.8,0,0,0,.77.77,5.88,5.88,0,0,0,1,.07c5.18,0,10.36,0,15.54,0,1.83,0,3.65,0,5.48-.06a8.86,8.86,0,0,1,1,0,.8.8,0,0,1,.75.77,3.92,3.92,0,0,1,0,.59q0,3.18,0,6.36a5.81,5.81,0,0,1-.08,1,.66.66,0,0,1-.7.61h-.74q-15.54,0-31.09,0a4.6,4.6,0,0,1-4-2.14,2.42,2.42,0,0,1-.46-1.52c0-1.18,0-2.36,0-3.55Z"/><path class="cls-2" d="M405.47,153.32c.82-6.41,2.37-12.68,3.65-19,1.15-.17,8.39-.2,10-.06a1.29,1.29,0,0,1,.16.86c.17,8,.08,28.93-.14,30.38h-6.2c-.4,0-.54-.14-.53-.53,0-1.13.08-2.26.11-3.39.07-2.57.13-5.13.2-7.69.08-3.35.17-6.7.25-10V143a2.21,2.21,0,0,0-.57,1.28c-1.08,5.27-2.17,10.52-3.24,15.79q-.51,2.46-1,4.92a.54.54,0,0,1-.59.52H403c-.48,0-.54-.08-.65-.62-.62-3-1.23-6.09-1.85-9.13q-1.2-5.85-2.42-11.72c-.07-.31,0-.71-.49-.9,0,1,0,1.88,0,2.81q.21,8.64.44,17.3a4.39,4.39,0,0,1-.08,2.16,6.65,6.65,0,0,1-2,.1c-1.52,0-3.05,0-4.5,0a1.54,1.54,0,0,1-.22-1.1v-29c0-.25,0-.5,0-.74a.46.46,0,0,1,.47-.47h9c.2,0,.39,0,.69,0,.79,3.09,1.3,6.24,2,9.35s1.13,6.3,1.57,9.47c0,.27,0,.55,0,.82a.25.25,0,0,0,.15.18.29.29,0,0,0,.23-.1A.66.66,0,0,0,405.47,153.32Z"/><path class="cls-2" d="M280.11,153.32c.34-2.19.62-4.39,1.05-6.57.82-4.15,1.73-8.29,2.6-12.4,1.15-.17,8.39-.2,10-.06a1.35,1.35,0,0,1,.16.86c.17,8,.08,28.93-.14,30.38h-6.2c-.4,0-.54-.15-.53-.53,0-1.13.07-2.26.1-3.39l.21-7.69.24-10c0-.24,0-.47,0-.77a1.54,1.54,0,0,0-.54,1.07Q285.8,150.1,284.6,156c-.61,3-1.23,6-1.83,9a.55.55,0,0,1-.6.52h-4.59c-.47,0-.53-.08-.64-.62-.62-3-1.23-6.09-1.86-9.13q-1.2-5.86-2.41-11.72a1.44,1.44,0,0,0-.5-1c0,1,0,2,0,2.89q.21,8.64.43,17.3a4.28,4.28,0,0,1-.07,2.16,6.65,6.65,0,0,1-2,.1c-1.53,0-3.05,0-4.5,0a1.49,1.49,0,0,1-.22-1.1v-29c0-.25,0-.5,0-.74a.45.45,0,0,1,.46-.47h9c.19,0,.39,0,.69,0,.79,3.09,1.3,6.24,2,9.35s1.14,6.3,1.58,9.48c0,.28,0,.57,0,.86s.09.18.21.13.1,0,.12-.07A.64.64,0,0,0,280.11,153.32Z"/><path class="cls-2" d="M724.94,165.53c.08-7.47.43-14.79.47-22.12-.43,0-.39.31-.43.51q-1,5-2.06,10-1.14,5.49-2.29,11c0,.19-.09.37-.14.58H715c-.4-1.92-.8-3.79-1.19-5.68-1-5.06-2-10.14-3.11-15.2-.08-.41.07-1-.52-1.22a2,2,0,0,0-.13,1.28c.08,3.06.17,6.11.25,9.17q.15,5.1.28,10.2c0,.43,0,.88,0,1.26-.29.31-.6.23-.89.24h-5.33c-.62,0-.65,0-.66-.69,0-.3,0-.59,0-.89V135.83c0-1.76-.16-1.62,1.56-1.62h8.14c.42,0,.6.2.68.61.34,1.69.72,3.37,1.07,5.06.44,2.07.85,4.15,1.31,6.22s.58,4,.9,6c.09.58.2,1.15.33,1.93a3.15,3.15,0,0,0,.45-1.46c.19-1.12.33-2.25.51-3.36.72-4.43,1.77-8.79,2.68-13.18.43-2.11,0-1.79,2.22-1.81s4.64,0,7,0h.74c.34,0,.56.16.58.52v29.75a3.54,3.54,0,0,1,0,.73c0,.11-.17.23-.29.28a1.27,1.27,0,0,1-.44,0Z"/><path class="cls-2" d="M468.51,165.48h-8.4a16.46,16.46,0,0,1-.56-5.44,22.16,22.16,0,0,0,0-3.82c-.2-2-1.09-3.21-3.49-3.11-.24,0-.49,0-.74,0-.58,0-.67.09-.67.71,0,3.36,0,6.71,0,10.07,0,.39,0,.78,0,1.18a.41.41,0,0,1-.46.45h-6.22c-.34,0-.56-.12-.56-.51V135.86c0-1.82-.17-1.65,1.68-1.65,2.82,0,5.63,0,8.44.06a19.81,19.81,0,0,1,4.41.43,6.45,6.45,0,0,1,5,5.24,11.86,11.86,0,0,1-.07,5.43,6.68,6.68,0,0,1-2,3.42l-1.31,1.15c.09.29.32.39.52.53a5.71,5.71,0,0,1,2.19,3.07,11.57,11.57,0,0,1,.57,3.19c.06,1.53,0,3.06.2,4.58A8.09,8.09,0,0,0,468.51,165.48Zm-13.88-22.06h0v2.66c0,.24,0,.49,0,.74a.53.53,0,0,0,.57.53,6.64,6.64,0,0,0,2.75-.42,2.36,2.36,0,0,0,1.42-1.41,5.91,5.91,0,0,0,.1-4,2.45,2.45,0,0,0-1.75-1.65,6.92,6.92,0,0,0-2.48-.29c-.45,0-.61.17-.61.64C454.62,141.26,454.63,142.34,454.63,143.42Z"/><path class="cls-2" d="M355.58,165.44V135.89c0-1.91-.12-1.68,1.65-1.68,2.56,0,5.13,0,7.7.06a19.75,19.75,0,0,1,4.4.46,7,7,0,0,1,5.37,5.16,15.17,15.17,0,0,1,.59,3.49q.31,6.51,0,13a14.72,14.72,0,0,1-.58,3.49,6.88,6.88,0,0,1-5.52,5.16,19.65,19.65,0,0,1-3.81.47c-3.07,0-6.13,0-9.19,0A4.12,4.12,0,0,1,355.58,165.44Zm7.33-15.66v8.42c0,.34,0,.69,0,1a.54.54,0,0,0,.56.57,5.48,5.48,0,0,0,2.59-.41,2.51,2.51,0,0,0,1.55-1.84,11.36,11.36,0,0,0,.26-1.75c.15-4,.21-8.06,0-12.09a10,10,0,0,0-.18-1.32,2.69,2.69,0,0,0-2.38-2.28,11.14,11.14,0,0,0-1.92-.07c-.36,0-.5.25-.5.58s0,.69,0,1Z"/><path class="cls-2" d="M597.35,150a1.73,1.73,0,0,0,.12.19,6.78,6.78,0,0,1,3.09,5.6c.12,1.37.15,2.75.21,4.13a10,10,0,0,0,1.41,5.47c-.16.08-.24.15-.32.15h-7.25c-.7,0-.73,0-.88-.71a19.11,19.11,0,0,1-.34-4.71c0-1.14,0-2.27,0-3.4a8,8,0,0,0-.28-1.6,2.57,2.57,0,0,0-2.32-2,1.51,1.51,0,0,0-.3,0c-2.42,0-2.06-.39-2.07,2,0,3.26,0,6.51,0,9.77,0,.65,0,.67-.67.67H581.5c-.4-.31-.29-.62-.29-.9V135.48c0-.2,0-.4,0-.59,0-.56.13-.67.73-.67,2.51,0,5,0,7.55,0,1.48,0,3,.13,4.43.19a9.62,9.62,0,0,1,1.61.24,6.46,6.46,0,0,1,5.22,5.39,11.82,11.82,0,0,1,0,5,7.23,7.23,0,0,1-2.77,4.41c-.11.09-.25.16-.36.25A2,2,0,0,0,597.35,150Zm-7.67-10.44h-.33c-.87,0-.93.06-.94.91,0,1.88,0,3.75,0,5.62,0,1.23-.1,1.3,1.32,1.28a6.32,6.32,0,0,0,1.88-.35,2.59,2.59,0,0,0,1.73-1.87,6.53,6.53,0,0,0,.06-3.37,2.53,2.53,0,0,0-1.86-1.92A5.22,5.22,0,0,0,589.68,139.54Z"/><path class="cls-2" d="M673.56,165.53c-.26-.6-.13-1.15-.52-1.56-.13.05-.3.06-.39.16-2.14,2.2-4.76,2.42-7.54,1.69a7.68,7.68,0,0,1-5-4.25A13.88,13.88,0,0,1,658.9,157a84.27,84.27,0,0,1-.26-10,35.55,35.55,0,0,1,.6-6.18,8.18,8.18,0,0,1,2.71-5,7.86,7.86,0,0,1,2.25-1.4,12.86,12.86,0,0,1,8-.45,7.28,7.28,0,0,1,5.48,5.45,10.24,10.24,0,0,1,.47,2.61c0,3.12.6,2.5-2.31,2.56-1.34,0-2.67,0-4,0-.54,0-.58-.07-.62-.61s-.05-1.19-.13-1.77a6.41,6.41,0,0,0-.33-1.44,2,2,0,0,0-2-1.43,2.14,2.14,0,0,0-2.1,1.36,4.56,4.56,0,0,0-.34,1.28,23.21,23.21,0,0,0-.27,3.53c0,3.31,0,6.62,0,9.92,0,.94.15,1.87.24,2.8a3.76,3.76,0,0,0,.19.87,2.13,2.13,0,0,0,2,1.56,2.34,2.34,0,0,0,2.27-1.1,2.37,2.37,0,0,0,.32-.66,11.43,11.43,0,0,0,.41-4.39.52.52,0,0,0-.59-.51h-1.78a.47.47,0,0,1-.53-.54c0-1.48,0-3,0-4.44,0-.36.21-.53.56-.54H677c.34,0,.69,0,1,0a.44.44,0,0,1,.48.45c0,.24,0,.49,0,.74v14.8a3.64,3.64,0,0,1,0,.74c0,.11-.17.21-.29.27a.56.56,0,0,1-.29,0Z"/><path class="cls-2" d="M310,134.21c2.3,0,4.52,0,6.74,0,.64,0,.67,0,.9.75l1.77,5.64c.2.66.41,1.31.63,2a.57.57,0,0,0,.32.44,1.34,1.34,0,0,0,.4-.77c.68-2.21,1.37-4.42,2.05-6.63.1-.33.21-.66.32-1a.56.56,0,0,1,.55-.41h7c.25.53-.05.86-.19,1.21-1.43,3.57-2.88,7.13-4.32,10.69-.39,1-.75,1.93-1.18,2.87a2.5,2.5,0,0,0,0,2.23c1,2.11,1.85,4.25,2.76,6.37s1.93,4.54,2.9,6.8c.13.31.26.63.34.84s-.24.3-.36.3H324c-.66,0-.67,0-.9-.7q-1.17-3.51-2.32-7c-.09-.28-.21-.55-.37-.94a2,2,0,0,0-.53.88l-2.25,6.42c-.12.32-.24.64-.35,1a.5.5,0,0,1-.54.38l-7.11,0s-.08,0-.13-.07A3.17,3.17,0,0,1,310,164c1.85-4.25,3.68-8.5,5.57-12.72a2.74,2.74,0,0,0,.07-2.37c-1.81-4.47-3.56-9-5.33-13.46A2.31,2.31,0,0,1,310,134.21Z"/><path class="cls-2" d="M422.26,165.53c.36-1.69.69-3.23,1-4.77l3.54-16.15c.69-3.13,1.38-6.25,2.06-9.38,0-.19.06-.39.11-.58a.57.57,0,0,1,.54-.43h6.95c1.3,0,1.31,0,1.6,1.33.48,2.21,1,4.43,1.43,6.64l3.45,16c.45,2.07.91,4.13,1.36,6.2.07.33.11.67.16,1a3.07,3.07,0,0,1-1.34.11H438c-.68,0-.7,0-.82-.73-.18-1.12-.34-2.24-.52-3.36-.07-.44-.18-.87-.23-1.31s-.32-.55-.7-.55h-4.59c-.48,0-.6.13-.68.6-.21,1.36-.42,2.73-.62,4.09s-.13,1.26-1.43,1.27Zm11.35-24.19a.83.83,0,0,0,0-.27.38.38,0,0,0-.18-.21c-.18,0-.25.11-.26.26a.86.86,0,0,0,.05.27q-.5,3.06-1,6.12c-.3,1.89-.6,3.79-.89,5.68-.06.41.06.57.44.59.54,0,1.08,0,1.62,0s1.09,0,1.63,0a.38.38,0,0,0,.41-.48l-.15-1Q434.46,146.81,433.61,141.34Z"/><path class="cls-2" d="M524.79,165.53h-6.23c-1,0-1,.17-1.25-1.13s-.43-2.82-.65-4.24c-.08-.49-.18-.58-.67-.59H511.4c-.56,0-.63.07-.73.69-.27,1.6-.52,3.21-.78,4.81,0,.1-.05.19-.07.29a41.88,41.88,0,0,1-7.26.06c.07-.42.13-.84.22-1.26L507,145c.7-3.17,1.38-6.35,2.08-9.52.27-1.23.28-1.24,1.51-1.24q3.33,0,6.66,0c.76,0,.78,0,.95.81q1.19,5.34,2.33,10.68,1.57,7.22,3.13,14.43C524,161.86,524.38,163.59,524.79,165.53Zm-9.15-11.75a1.89,1.89,0,0,0,.07-.51q-.93-6-1.88-11.93c0-.09-.1-.16-.16-.24a.53.53,0,0,0-.15-.07c-.33,2.08-.68,4.16-1,6.24s-.76,4.23-.95,6.43A32.58,32.58,0,0,0,515.64,153.78Z"/><path class="cls-2" d="M578.19,165.53H576c-1.43,0-2.86,0-4.29,0-.59,0-.7-.09-.78-.64-.23-1.46-.44-2.92-.66-4.38-.14-.91-.14-.92-1.14-.93h-3.55c-1.19,0-1.29-.19-1.49,1.23s-.4,2.73-.61,4.09c-.09.56-.14.63-.6.63h-6.63c-.26-.4-.06-.72,0-1q2.06-9.37,4.12-18.75l2.16-10c.07-.34.17-.67.23-1a.61.61,0,0,1,.71-.57c2.46,0,4.93,0,7.4,0,.64,0,.71.08.86.77q1.43,6.57,2.84,13.14,1.77,8.22,3.56,16.46A1.33,1.33,0,0,1,578.19,165.53Zm-11-24.63c0,.24-.09.41-.12.58-.49,3-1,6-1.43,9-.14,1-.61,2.08-.3,3.17a21.89,21.89,0,0,0,3.24.11c.74,0,.79-.23.68-.89-.57-3.55-1.1-7.11-1.64-10.66A3.08,3.08,0,0,0,567.16,140.9Z"/><path class="cls-2" d="M628.5,154.88c.25,0,.5,0,.74,0a7.54,7.54,0,0,1,2.46.17c.08.78.14,1.56.24,2.33a11.49,11.49,0,0,0,.3,1.44,2.24,2.24,0,0,0,2.36,1.62,2.42,2.42,0,0,0,2.3-1.76,3.58,3.58,0,0,0-.3-2.86,6,6,0,0,0-1.81-1.94c-1.21-.84-2.45-1.65-3.65-2.51-.89-.63-1.75-1.29-2.6-2a7.39,7.39,0,0,1-2.65-4.16,11.11,11.11,0,0,1,.16-6.41,7.19,7.19,0,0,1,4.77-4.7,12,12,0,0,1,7.57,0,7.05,7.05,0,0,1,4.9,4.91,11.2,11.2,0,0,1,.48,3.94.5.5,0,0,1-.55.55h-5.48c-.38,0-.49-.23-.52-.56-.05-.54-.13-1.08-.2-1.62a3.41,3.41,0,0,0-.49-1.38,2.1,2.1,0,0,0-2.12-1.07,2.16,2.16,0,0,0-1.85,1.48,2.88,2.88,0,0,0,.32,2.82,7.1,7.1,0,0,0,2,2c1.23.83,2.49,1.62,3.71,2.45.85.59,1.67,1.23,2.49,1.85a6.9,6.9,0,0,1,2.59,4,12.37,12.37,0,0,1-.39,7.56,7.37,7.37,0,0,1-5.16,4.69,13.52,13.52,0,0,1-7.46-.08,7,7,0,0,1-4.77-4.29,13.64,13.64,0,0,1-.74-6.11.36.36,0,0,1,.4-.34h3Z"/><path class="cls-2" d="M333.8,150v-14c0-.34,0-.69,0-1,0-.51.13-.63.58-.66.25,0,.5,0,.74,0h14.51c.25,0,.49,0,.74,0a.47.47,0,0,1,.46.48,2.71,2.71,0,0,1,0,.29q0,2.22,0,4.44c0,.69-.09.78-.75.79h-8.44a.51.51,0,0,0-.57.54c0,1.67,0,3.35,0,5a.44.44,0,0,0,.48.45h8c.35,0,.54.14.54.52,0,1.67,0,3.35,0,5,0,.53-.1.61-.59.63s-.69,0-1,0H342.4c-.29,0-.59,0-.88,0a.4.4,0,0,0-.4.36.58.58,0,0,0,0,.14v5.62c0,.38.24.51.57.52h8.43c.66,0,.76.1.76.79,0,1.67,0,3.35,0,5,0,.5-.08.55-.63.58H335l-.74,0c-.3,0-.43-.18-.43-.47s0-.79,0-1.18Z"/><path class="cls-2" d="M679.32,134.21h7.2c.55,0,.65.08.83.64q1.2,3.88,2.38,7.77a2.43,2.43,0,0,0,.41,1c.36-.07.37-.4.45-.64.82-2.63,1.62-5.27,2.44-7.9.25-.81.26-.82,1.14-.83,2.27,0,4.54,0,6.77,0,.23.62-.12,1-.3,1.47q-3.07,7.75-6.2,15.5a6.31,6.31,0,0,0-.48,2.43c0,3.45,0,6.9,0,10.35,0,.49,0,1,0,1.57h-6.89c-.52,0-.59-.08-.61-.59,0-.35,0-.69,0-1,0-3.55,0-7.1,0-10.65a5.09,5.09,0,0,0-.39-2q-3-7.47-6-14.94C679.87,135.66,679.63,135,679.32,134.21Z"/><path class="cls-2" d="M475.69,165.53V141.89c0-1.77.15-1.67-1.69-1.67-1.19,0-2.37,0-3.56,0-.48,0-.6-.13-.6-.63,0-1.57,0-3.15,0-4.73,0-.49.13-.61.6-.64.3,0,.6,0,.89,0h16.29c.25,0,.49,0,.74,0,.69,0,.79.11.8.75s0,1.28,0,1.92c0,.84,0,1.68,0,2.52s-.08.81-.87.82c-1.43,0-2.87,0-4.3,0-.94,0-.95,0-1,1v22.63c0,.44,0,.89,0,1.33a.29.29,0,0,1-.29.28c-.09,0-.19,0-.29,0Z"/><path class="cls-2" d="M609.47,152.9V141.81c0-.39,0-.79,0-1.18a.4.4,0,0,0-.39-.37c-.34,0-.69,0-1,0-1.23,0-2.47,0-3.7,0-.54,0-.67-.11-.67-.56,0-1.63,0-3.26,0-4.88a.49.49,0,0,1,.54-.55h17.46c1.43,0,1.36,0,1.35,1.38s0,2.66,0,4c0,.48-.13.62-.62.62-1.28,0-2.56,0-3.84,0-.35,0-.69,0-1,0-.56,0-.64.12-.66.72,0,.4,0,.79,0,1.19v21.58c0,.4,0,.79,0,1.18s-.07.62-.58.62h-5.91c-.84,0-.85,0-.87-.8,0-.35,0-.69,0-1Z"/><path class="cls-2" d="M543.61,165.48c-.3,0-.59.05-.88.05H528.81a6.48,6.48,0,0,1-.88,0,.44.44,0,0,1-.27-.29,2.24,2.24,0,0,1,0-.58q0-14.64,0-29.29c0-.14,0-.29,0-.44,0-.58.1-.67.71-.68,2,0,3.95,0,5.92,0,.61,0,.7.1.72.68,0,.39,0,.79,0,1.18v21.74c0,1.32-.12,1.31,1.27,1.31h6.66c.75,0,.8,0,.8.72,0,1.72,0,3.45,0,5.17A2.12,2.12,0,0,1,543.61,165.48Z"/><path class="cls-2" d="M515,70.25h12.13c1.47,0,1.66.19,1.7,1.7,0,.55,0,1.09,0,1.63v4.88c0,.34,0,.69,0,1a.74.74,0,0,1-.77.74c-.49,0-1,0-1.48,0l-20,0H503c-.24,0-.49,0-.74,0a1.1,1.1,0,0,1-1.05-1,6,6,0,0,1-.05-.74c0-2.36,0-4.73,0-7.09a3.64,3.64,0,0,1,.09-.73.44.44,0,0,1,.41-.36c.4,0,.79,0,1.18,0Z"/><path class="cls-2" d="M492.29,165.53v-1.6q0-14.07,0-28.12c0-1.79-.16-1.59,1.56-1.6s3.36,0,5,0c.59,0,.7.12.73.67,0,.25,0,.5,0,.74v28.57c0,1.47.11,1.33-1.36,1.34Z"/><path class="cls-2" d="M401.16,70.25h9.32c.35,0,.69,0,1,0,.71,0,1,.28,1.05,1a8.77,8.77,0,0,1,0,.89c0,2.07,0,4.14,0,6.21a9.09,9.09,0,0,1,0,1.17.83.83,0,0,1-.79.75,8.75,8.75,0,0,1-.89,0H391.36c-.39,0-.79,0-1.18,0a.81.81,0,0,1-.77-.76,4.48,4.48,0,0,1-.05-.73c0-2.22,0-4.44,0-6.66,0-1.86.46-1.86,1.89-1.85C394.55,70.26,397.86,70.25,401.16,70.25Z"/><path class="cls-2" d="M299.13,149.87q0-7.19,0-14.36c0-1.33,0-1.31,1.29-1.3,1.68,0,3.36,0,5,0,1,0,1,0,1,1,0,.14,0,.29,0,.44v28.57c0,1.44.13,1.34-1.37,1.34h-5.33c-.61,0-.64-.05-.65-.7,0-.89,0-1.77,0-2.66Z"/><path class="cls-2" d="M568.82,96h-8.88a.35.35,0,0,1-.37-.37c0-.24,0-.49,0-.74V88.19a8.62,8.62,0,0,1,0-.88.86.86,0,0,1,.87-.84c.24,0,.49,0,.74,0h16.29c.38,0,.52.21.52.56q0,4.22,0,8.44c0,.38-.23.5-.56.5h-8.6Z"/><path class="cls-3" d="M139.6,42.19a4.07,4.07,0,0,1,2-.41,45,45,0,0,0,6.36-.23,2,2,0,0,1,1.16.13.72.72,0,0,1,.25,1.21,9.55,9.55,0,0,1-.91.75L144.13,47A7.8,7.8,0,0,0,142,49.22a3.69,3.69,0,0,1-3.48,2.09c-.64-.21-1.3-.41-1.94-.65A3.28,3.28,0,0,1,135,49.59a.49.49,0,0,1,.11-.75,3.2,3.2,0,0,1,.51-.29,5,5,0,0,0,2.43-2.45c.4-.78.89-1.51,1.35-2.26A1.51,1.51,0,0,0,139.6,42.19Z"/><path class="cls-4" d="M405.47,153.32a.66.66,0,0,1-.1.65.29.29,0,0,1-.23.1.25.25,0,0,1-.15-.18c0-.27,0-.55,0-.82Z"/><path class="cls-4" d="M280.11,153.32a.64.64,0,0,1-.14.68s-.08.05-.12.07-.2,0-.21-.13,0-.58,0-.86Z"/><path class="cls-4" d="M433.61,141.34c-.11.1-.22.23-.38,0a.86.86,0,0,1-.05-.27c0-.15.08-.3.26-.26a.38.38,0,0,1,.18.21A.83.83,0,0,1,433.61,141.34Z"/></g></g></svg>