<svg xmlns="http://www.w3.org/2000/svg" viewBox="0 0 24.78 17.87"><defs><style>.cls-1{fill:#e2e2e2;}</style></defs><g id="Layer_2" data-name="Layer 2"><g id="Layer_1-2" data-name="Layer 1"><path class="cls-1" d="M21.72,0H3.06A3.06,3.06,0,0,0,0,3.06V14.81a3.06,3.06,0,0,0,3.06,3.06H21.72a3.06,3.06,0,0,0,3.06-3.06V3.06A3.06,3.06,0,0,0,21.72,0Zm1.85,3.06V14.81a1.76,1.76,0,0,1-.17.76L15.82,8.94,23.4,2.3A1.76,1.76,0,0,1,23.57,3.06ZM21.72,1.21a1.86,1.86,0,0,1,.78.18L13,9.73a.88.88,0,0,1-1.16,0L2.29,1.39a1.81,1.81,0,0,1,.77-.18ZM1.38,15.57a1.76,1.76,0,0,1-.17-.76V3.06a1.76,1.76,0,0,1,.17-.76L9,8.94Zm1.68,1.09a1.81,1.81,0,0,1-.77-.17l7.64-6.7,1,.9a2.12,2.12,0,0,0,1.42.54,2.16,2.16,0,0,0,1.43-.54l1-.9,7.65,6.7a1.85,1.85,0,0,1-.78.17Z"/></g></g></svg>