<svg xmlns="http://www.w3.org/2000/svg" viewBox="0 0 11.81 11.81"><defs><style>.cls-1{fill:#e2e2e2;fill-rule:evenodd;}</style></defs><g id="Layer_2" data-name="Layer 2"><g id="Layer_1-2" data-name="Layer 1"><path class="cls-1" d="M5.91,0a5.91,5.91,0,0,0-5,9.11l-.89,2a.5.5,0,0,0,.07.55.52.52,0,0,0,.4.18.3.3,0,0,0,.13,0l2.47-.67a6,6,0,0,0,2.79.69A5.91,5.91,0,0,0,5.91,0Zm0,10.78a4.9,4.9,0,0,1-2.46-.66.48.48,0,0,0-.26-.07.3.3,0,0,0-.13,0l-1.62.44L2,9.27A.51.51,0,0,0,2,8.75,4.82,4.82,0,0,1,1,5.91a4.88,4.88,0,1,1,4.88,4.87Z"/><path class="cls-1" d="M8.18,6.79a1,1,0,0,0-.86-.19c-.23.09-.37.44-.51.62a.23.23,0,0,1-.28.06A4,4,0,0,1,4.58,5.61a.23.23,0,0,1,0-.32A1.42,1.42,0,0,0,5,4.71,1.36,1.36,0,0,0,4.81,4c-.12-.25-.25-.61-.5-.75a.69.69,0,0,0-.75.11A1.48,1.48,0,0,0,3,4.59a1.64,1.64,0,0,0,0,.38,3.31,3.31,0,0,0,.37.84c.12.2.24.39.38.58A6,6,0,0,0,5.48,7.93a5.5,5.5,0,0,0,1,.49,2.34,2.34,0,0,0,1.2.19A1.46,1.46,0,0,0,8.8,7.8a.68.68,0,0,0,0-.42C8.79,7.1,8.41,6.93,8.18,6.79Z"/></g></g></svg>