<svg xmlns="http://www.w3.org/2000/svg" viewBox="0 0 32.96 32.96"><defs><style>.cls-1{fill:#25d366;stroke:#fff;stroke-miterlimit:10;stroke-width:0.75px;}.cls-2{fill:#fff;}</style></defs><g id="Layer_2" data-name="Layer 2"><g id="Layer_1-2" data-name="Layer 1"><path class="cls-1" d="M16.48,2.88a13.6,13.6,0,0,0-11,21.54,1.44,1.44,0,0,1,.15,1.44L4,29.32l4.5-1.24a1.73,1.73,0,0,1,.38,0,1.43,1.43,0,0,1,.73.2A13.6,13.6,0,1,0,16.48,2.88Zm8.08,18.87a4,4,0,0,1-3,2.26,6.42,6.42,0,0,1-3.35-.53,13.83,13.83,0,0,1-2.88-1.37,16.53,16.53,0,0,1-4.62-4.28c-.38-.52-.73-1.06-1.06-1.62a8.91,8.91,0,0,1-1-2.35,4.73,4.73,0,0,1-.13-1.06A4.27,4.27,0,0,1,9.93,9.45,1.93,1.93,0,0,1,12,9.14a4.45,4.45,0,0,1,1.39,2.11,3.5,3.5,0,0,1,.45,1.89,3.66,3.66,0,0,1-1,1.6.67.67,0,0,0-.08.91,10.81,10.81,0,0,0,5.42,4.65.6.6,0,0,0,.78-.17c.4-.49.8-1.47,1.42-1.73a2.8,2.8,0,0,1,2.4.55c.65.38,1.72.85,1.89,1.65A1.9,1.9,0,0,1,24.56,21.75Z"/><path class="cls-2" d="M16.48,0A16.48,16.48,0,0,0,2.63,25.41L.13,30.92a1.44,1.44,0,0,0,1.31,2,1.26,1.26,0,0,0,.38-.06L8.72,31A16.48,16.48,0,1,0,16.48,0Zm0,30.08a13.59,13.59,0,0,1-6.85-1.85A1.43,1.43,0,0,0,8.9,28a1.73,1.73,0,0,0-.38,0L4,29.32l1.57-3.46a1.44,1.44,0,0,0-.15-1.44,13.6,13.6,0,1,1,11,5.66Z"/><path class="cls-2" d="M22.81,19a2.8,2.8,0,0,0-2.4-.55c-.62.26-1,1.24-1.42,1.73a.6.6,0,0,1-.78.17,10.81,10.81,0,0,1-5.42-4.65.67.67,0,0,1,.08-.91,3.66,3.66,0,0,0,1-1.6,3.5,3.5,0,0,0-.45-1.89A4.45,4.45,0,0,0,12,9.14a1.93,1.93,0,0,0-2.09.31A4.27,4.27,0,0,0,8.47,12.8a4.73,4.73,0,0,0,.13,1.06,8.91,8.91,0,0,0,1,2.35c.33.56.68,1.1,1.06,1.62a16.53,16.53,0,0,0,4.62,4.28,13.83,13.83,0,0,0,2.88,1.37,6.42,6.42,0,0,0,3.35.53,4,4,0,0,0,3-2.26,1.9,1.9,0,0,0,.14-1.15C24.53,19.8,23.46,19.33,22.81,19Z"/></g></g></svg>